# xmcd
#
# Track frame offsets:
#	150
#	14677
#	30172
#	46310
#	56697
#	73505
#	86655
#	102212
#	117487
#	131815
#	143345
#	156265
#	165905
#
# Disc length: 2443 seconds
#
# Revision: 3
# Processed by: cddbd v1.5.2PL0 Copyright (c) Steve Scherf et al.
# Submitted via: audiograbber 1.83.01
#
DISCID=a509890d
DTITLE=The Dead Ringer Band - Home Fires
DYEAR=1995
DGENRE=Country
TTITLE0=Home Fires
TTITLE1=More About Love
TTITLE2=Always Be Me
TTITLE3=Australian Son
TTITLE4=Honky Tonk From Hell
TTITLE5=I'd Go Home If I Had One
TTITLE6=Why
TTITLE7=Family Man
TTITLE8=Burning Flame (Duet with Clint Beattie)
TTITLE9=Just Wanted To See You So Bad
TTITLE10=Sin City
TTITLE11=Guitar Talk
TTITLE12=Gypsy Bound
EXTD=YEAR: 1995 ID3G: 2
EXTT0=
EXTT1=
EXTT2=
EXTT3=
EXTT4=
EXTT5=
EXTT6=
EXTT7=
EXTT8=
EXTT9=Great cover of Lucinda Williams' cut from her self-titled album!
EXTT10=
EXTT11=
EXTT12=
PLAYORDER=
